<?xml version="1.0" encoding="UTF-8" standalone="no"?>
<svg
   xmlns:dc="http://purl.org/dc/elements/1.1/"
   xmlns:cc="http://creativecommons.org/ns#"
   xmlns:rdf="http://www.w3.org/1999/02/22-rdf-syntax-ns#"
   xmlns:svg="http://www.w3.org/2000/svg"
   xmlns="http://www.w3.org/2000/svg"
   xmlns:sodipodi="http://sodipodi.sourceforge.net/DTD/sodipodi-0.dtd"
   xmlns:inkscape="http://www.inkscape.org/namespaces/inkscape"
   viewBox="-59.4602867391321 -59.4602867391321 131.65296892561582 118.9205734782642"
   height="118.9205734782642mm"
   width="131.65296892561582mm"
   version="1.1"
   id="SvgjsSvg1426"
   sodipodi:docname="involute_gear_40_to_5.svg"
   inkscape:version="1.0.1 (3bc2e813f5, 2020-09-07)">
  <metadata
     id="metadata29">
    <rdf:RDF>
      <cc:Work
         rdf:about="">
        <dc:format>image/svg+xml</dc:format>
        <dc:type
           rdf:resource="http://purl.org/dc/dcmitype/StillImage" />
        <dc:title></dc:title>
      </cc:Work>
    </rdf:RDF>
  </metadata>
  <sodipodi:namedview
     pagecolor="#ffffff"
     bordercolor="#666666"
     borderopacity="1"
     objecttolerance="10"
     gridtolerance="10"
     guidetolerance="10"
     inkscape:pageopacity="0"
     inkscape:pageshadow="2"
     inkscape:window-width="1920"
     inkscape:window-height="1017"
     id="namedview27"
     showgrid="false"
     inkscape:snap-global="true"
     inkscape:snap-object-midpoints="true"
     inkscape:snap-center="true"
     inkscape:snap-text-baseline="true"
     inkscape:snap-page="true"
     inkscape:snap-smooth-nodes="true"
     inkscape:snap-midpoints="true"
     inkscape:snap-intersection-paths="true"
     inkscape:object-paths="true"
     inkscape:snap-bbox="true"
     inkscape:bbox-paths="true"
     inkscape:bbox-nodes="true"
     inkscape:snap-bbox-edge-midpoints="true"
     inkscape:snap-bbox-midpoints="true"
     inkscape:zoom="1.4142136"
     inkscape:cx="186.79923"
     inkscape:cy="164.45285"
     inkscape:window-x="1912"
     inkscape:window-y="-8"
     inkscape:window-maximized="1"
     inkscape:current-layer="SvgjsSvg1426" />
  <desc
     id="desc2">Created with svg.js [http://svgjs.com]</desc>
  <defs
     id="SvgjsDefs1427" />
  <defs
     id="defs5" />
  <g
     transform="translate(52.655108,-42.634883)"
     id="SvgjsG1429"
     style="stroke-width:0.05;stroke-miterlimit:4;stroke-dasharray:none;stroke:#000000;stroke-opacity:1">
    <g
       fill="none"
       stroke-width="0.04"
       stroke="#0000ff"
       id="SvgjsG1430"
       style="stroke-width:0.05;stroke-miterlimit:4;stroke-dasharray:none;stroke:#000000;stroke-opacity:1" />
    <g
       id="g869"
       transform="translate(0.61074911,-4.2393173)"
       style="stroke-width:0.05;stroke-miterlimit:4;stroke-dasharray:none;stroke:#000000;stroke-opacity:1">
      <g
         fill="none"
         stroke-width="0.1"
         stroke="#000000"
         id="SvgjsG1435"
         transform="translate(7.7960327,-2.4429964)"
         style="stroke-width:0.05;stroke-miterlimit:4;stroke-dasharray:none;stroke:#000000;stroke-opacity:1">
        <circle
           cy="0"
           cx="0"
           r="2.4000001"
           id="SvgjsCircle1436"
           style="stroke-width:0.05;stroke-miterlimit:4;stroke-dasharray:none;stroke:#000000;stroke-opacity:1" />
        <path
           d="M 2.0437561,8.5021292 1.8193207,8.3681263 1.6086644,8.2300626 1.413391,8.0900574 1.2318364,7.9480223 1.0646961,7.8056026 0.91112275,7.663238 0.77019129,7.5211221 0.52907844,7.2456096 0.33706524,6.9851883 0.18923571,6.7450535 0.0804458,6.529937 0.00597573,6.3458864 -0.03019098,6.2335838 0.06074157,6.0259512 0.13563355,5.819016 0.19361054,5.6167313 0.23521802,5.4201367 0.26102338,5.2302367 0.27170428,5.0479873 0.26794126,4.8743038 0.25048428,4.7100817 0.22013321,4.5561277 0.17771931,4.4132165 0.12413685,4.2820908 0.06031099,4.1633983 -0.01282383,4.057758 -0.09426733,3.965716 -0.18299425,3.887773 -0.27796725,3.824361 -0.37812417,3.775836 -0.44286197,3.753214 -0.69724762,3.704689 -1.003743,3.633639 -1.1649075,3.585216 -1.3237545,3.52966 -1.6134764,3.4069869 l -0.2343243,-0.110267 -0.065671,-0.01975 -0.1095511,-0.019613 -0.1141073,-0.00452 -0.1175953,0.010905 -0.1199902,0.026593 -0.1212612,0.042477 -0.1214019,0.058508 -0.1204228,0.074588 -0.1183147,0.090687 -0.1150464,0.1067115 -0.1106503,0.1225975 -0.105133,0.1383011 -0.098482,0.1537209 -0.090743,0.1688003 -0.081894,0.1835047 -0.071995,0.1977297 -0.061045,0.2114345 -0.048477,0.2214271 -0.095269,0.069597 -0.1684298,0.1051276 -0.2144552,0.1100878 -0.2607443,0.1073812 -0.3084137,0.097823 -0.3570066,0.081172 -0.1975496,0.032137 -0.2079232,0.024907 -0.2189316,0.016977 -0.2303669,0.00819 -0.2402725,-0.00151 -0.2515762,-0.012125 -0.2603371,-0.023509 -0.2464905,-0.032646 C -7.1138171,5.3799123 -7.3148904,5.1031595 -7.4995714,4.8155446 L -7.45445,4.57103 -7.39636,4.31617 -7.33015,4.07316 -7.25734,3.84418 -7.17836,3.62762 -7.09456,3.42465 -7.00662,3.2346 -6.91501,3.05665 -6.72749,2.7422 l 0.18834,-0.26309 0.1827,-0.2148 0.17097,-0.16994 0.15203,-0.1277 0.09563,-0.0691 0.22557,0.02232 L -5.4923,1.92717 -5.282,1.9198 -5.08217,1.89862 -4.89359,1.86448 -4.71696,1.81832 -4.55294,1.76107 -4.40215,1.69372 -4.26511,1.61728 -4.1423,1.53278 -4.03415,1.4413 -3.94099,1.34392 -3.86312,1.24172 -3.80075,1.13582 -3.75404,1.02735 -3.72308,0.91743 -3.70788,0.80718 -3.70637,0.73862 -3.73883,0.48169 -3.76597,0.16824 -3.76972,0 l 0.00375,-0.16824 0.02714,-0.31345 0.03246,-0.25693 -0.00151,-0.06856 -0.0152,-0.11025 -0.03096,-0.10992 -0.04671,-0.10847 -0.06237,-0.1059 -0.07787,-0.1022 -0.09316,-0.09738 -0.10815,-0.09148 -0.12281,-0.0845 -0.13704,-0.07644 -0.15079,-0.06735 -0.16402,-0.05725 -0.17663,-0.04616 -0.18858,-0.03414 -0.19983,-0.02118 -0.2103,-0.00737 -0.21995,0.00728 -0.22557,0.02232 -0.09563,-0.0691 -0.15203,-0.1277 -0.17097,-0.16994 -0.1827,-0.2148 -0.18834,-0.26309 -0.18752,-0.31445 -0.09161,-0.17795 -0.08794,-0.19005 -0.0838,-0.20297 -0.07898,-0.21656 -0.07281,-0.22898 -0.06621,-0.24301 -0.05809,-0.25486 -0.045121,-0.2445146 c 0.1846804,-0.2876146 0.385753,-0.5643672 0.6022213,-0.8288865 l 0.2464905,-0.032646 0.2603371,-0.023509 0.2515762,-0.012125 0.2402725,-0.00151 0.2303669,0.00819 0.2189316,0.016977 0.2079232,0.024907 0.1975496,0.032137 0.3570066,0.081172 0.3084137,0.097823 0.2607443,0.1073812 0.2144552,0.1100878 0.1684298,0.1051276 0.095269,0.069597 0.048477,0.2214271 0.061045,0.2114345 0.071995,0.1977297 0.081894,0.1835047 0.090743,0.1688003 0.098482,0.1537209 0.105133,0.1383011 0.1106503,0.1225975 0.1150464,0.1067115 0.1183147,0.090687 0.1204228,0.074588 0.1214019,0.058508 0.1212612,0.042477 0.1199902,0.026593 0.1175953,0.010905 0.1141073,-0.00452 0.1095511,-0.019613 0.065671,-0.01975 0.2343243,-0.110267 0.2897219,-0.1226731 0.158847,-0.055556 0.1611645,-0.048423 0.3064954,-0.07105 0.25438565,-0.048525 0.0647378,-0.022622 0.10015692,-0.048525 0.094973,-0.063412 0.08872692,-0.077943 0.0814435,-0.092042 0.07313482,-0.1056403 0.06382586,-0.1186925 0.0535825,-0.1311257 0.0424139,-0.1429112 0.0303511,-0.153954 0.017457,-0.1642221 0.003763,-0.1736835 -0.0106809,-0.1822494 -0.0258054,-0.1899 L 0.19361054,-5.6167313 0.13563355,-5.819016 0.06074157,-6.0259512 -0.03019098,-6.2335838 0.00597573,-6.3458864 0.0804458,-6.529937 0.18923571,-6.7450535 0.33706524,-6.9851883 0.52907844,-7.2456096 0.77019129,-7.5211221 0.91112275,-7.663238 1.0646961,-7.8056026 1.2318364,-7.9480223 1.413391,-8.0900574 1.6086644,-8.2300626 1.8193207,-8.3681263 2.0437561,-8.5021292 2.2623601,-8.6206014 c 0.3306071,0.086764 0.6559493,0.1924738 0.9744145,0.3166065 l 0.1072181,0.2243382 0.1028072,0.2403305 0.089273,0.2355165 0.075687,0.2280453 0.063395,0.221624 0.051507,0.2134626 0.040564,0.2054435 0.030482,0.1978116 0.033122,0.3646169 0.00227,0.3235477 -0.021551,0.2811653 -0.038429,0.237978 -0.047935,0.1926724 -0.03675,0.112113 -0.1956093,0.1145295 -0.1822224,0.1233937 -0.1658043,0.1295737 -0.1492165,0.1345921 -0.1324975,0.1384644 -0.1157645,0.1411647 -0.099044,0.1427248 -0.082404,0.1431194 -0.065937,0.1423913 -0.049687,0.1405479 -0.033725,0.1375778 -0.01813,0.1335402 -0.00293,0.1284524 0.011788,0.122335 0.025968,0.1152095 0.039562,0.107125 0.052506,0.098129 0.039077,0.056354 0.1772803,0.1887813 0.206198,0.2376339 0.1019228,0.1339048 0.095855,0.1383132 0.1622846,0.2695389 0.124759,0.2269402 0.04152,0.054579 0.0771,0.08026 0.089656,0.070729 0.1015463,0.060299 0.1127048,0.049015 0.1230698,0.036911 0.1326066,0.024024 0.1412658,0.01044 0.1490232,-0.00382 0.155798,-0.018709 0.161579,-0.034145 0.1663457,-0.050092 0.1700288,-0.066476 0.1726314,-0.083225 0.1741152,-0.1003222 0.1744682,-0.1176488 0.1736643,-0.135173 0.1693706,-0.1506439 0.1179822,-3.069e-4 0.198055,0.01395 0.2382059,0.036991 0.2740637,0.066388 0.3070107,0.1021408 0.3365359,0.1441739 0.1787104,0.090118 0.1828536,0.1020638 0.1870984,0.1149498 0.1911869,0.1287774 0.1934956,0.1424521 0.1964027,0.15768195 0.1967988,0.17204163 0.180226,0.17129479 c 0.019646,0.34123748 0.019646,0.68332258 0,1.02456006 L 8.7175608,0.68357482 8.520762,0.85561645 8.3243593,1.0132984 8.1308637,1.1557505 7.9396768,1.2845279 7.7525784,1.3994777 7.5697248,1.5015415 7.3910144,1.5916591 7.0544785,1.735833 6.7474678,1.8379738 6.4734041,1.9043623 6.2351982,1.941353 6.0371432,1.9553035 5.919161,1.9549966 5.7497904,1.8043527 5.5761261,1.6691797 5.4016579,1.5515309 5.2275427,1.4512087 5.0549113,1.367984 4.8848825,1.3015077 4.7185368,1.2514154 l -0.161579,-0.034145 -0.155798,-0.018709 -0.1490232,-0.00382 -0.1412658,0.01044 -0.1326066,0.024024 -0.1230698,0.036911 -0.1127048,0.049015 -0.1015463,0.060299 -0.089656,0.070729 -0.0771,0.08026 -0.04152,0.054579 -0.124759,0.2269402 -0.1622846,0.2695389 -0.095855,0.1383132 -0.1019228,0.1339048 -0.206198,0.2376339 -0.1772803,0.1887813 -0.039077,0.056354 -0.052506,0.098129 -0.039562,0.107125 -0.025968,0.1152095 -0.011788,0.122335 0.00293,0.1284524 0.01813,0.1335402 0.033725,0.1375778 0.049687,0.1405479 0.065937,0.1423913 0.082404,0.1431194 0.099044,0.1427248 0.1157645,0.1411647 0.1324975,0.1384644 0.1492165,0.1345921 0.1658043,0.1295737 c 0,0 0.1201666,0.084275 0.1822224,0.1233937 0.063917,0.040292 0.1956093,0.1145295 0.1956093,0.1145295 l 0.03675,0.112113 0.047935,0.1926724 0.038429,0.237978 0.021551,0.2811653 -0.00227,0.3235477 L 3.7977111,6.5374284 3.7672291,6.73524 3.7266651,6.9406835 3.6751581,7.1541461 3.6117631,7.3757701 3.5360725,7.6038097 3.4467999,7.8393262 3.3439927,8.0796567 3.2367746,8.3039949 C 2.9183094,8.4281276 2.5929672,8.5338377 2.2623601,8.6206014 Z"
           id="SvgjsPath1437"
           sodipodi:nodetypes="ccccccccccccccccccccccccccccccccccccccccccccccccccccccccccccccccccccccccccccccccccccccccccccccccccccccccccccccccccccccccccccccccccccccccccccccccccccccccccccccccccccccccccccccccccccccccccccccccccccccccccccccccccccccccccccccccccccccccccccccccccccccccccccccccccccccccccccccccccccccccccccccccccccccccccccccccccccccccccccccccccccccccccccccccccsccccccccccccccccc"
           style="stroke-width:0.05;stroke-miterlimit:4;stroke-dasharray:none;stroke:#000000;stroke-opacity:1" />
      </g>
    </g>
  </g>
  <g
     id="g878"
     transform="translate(-2.5867021,0.43111706)"
     style="stroke-width:0.05;stroke-miterlimit:4;stroke-dasharray:none;stroke:#000000;stroke-opacity:1">
    <g
       id="SvgjsG1438"
       transform="translate(-2.6287925,-5.8462313)"
       style="stroke-width:0.05;stroke-miterlimit:4;stroke-dasharray:none;stroke:#000000;stroke-opacity:1">
      <g
         fill="none"
         stroke-width="0.04"
         stroke="#0000ff"
         id="SvgjsG1439"
         style="stroke-width:0.05;stroke-miterlimit:4;stroke-dasharray:none;stroke:#000000;stroke-opacity:1" />
      <g
         fill="none"
         stroke-width="0.1"
         stroke="#000000"
         id="SvgjsG1444"
         style="stroke-width:0.05;stroke-miterlimit:4;stroke-dasharray:none;stroke:#000000;stroke-opacity:1">
        <circle
           cy="0"
           cx="0"
           r="2.5"
           id="SvgjsCircle1445"
           style="stroke-width:0.05;stroke-miterlimit:4;stroke-dasharray:none;stroke:#000000;stroke-opacity:1" />
        <path
           d="m 52.576463,-7.1644072 -0.393655,0.2532364 -0.381895,0.2345462 -0.369625,0.2164778 -0.354141,0.1975646 -0.666508,0.3451074 -0.603959,0.2813233 -0.53855,0.2239345 -0.467062,0.1716644 -0.316951,0.1063657 -0.123741,0.0524 -0.100284,0.054867 -0.07676,0.056367 -0.05327,0.056915 -0.02977,0.0565 -0.0063,0.055116 0.01279,0.1280616 0.07735,0.8817892 0.06154,0.8830336 0.0074,0.1284852 0.01487,0.053448 0.03824,0.051147 0.06152,0.047881 0.08464,0.043664 0.107633,0.038504 0.130414,0.032398 0.329688,0.055474 0.488165,0.096486 0.566951,0.1369296 0.640533,0.1833797 0.712289,0.2365939 0.380686,0.1397324 0.398939,0.1559905 0.413884,0.1719169 0.428423,0.1885375 0.417616,0.19413555 a 53.476061,53.476061 0 0 1 0,1.9088677 L 53.049947,1.148569 52.621524,1.3371065 52.20764,1.5090234 l -0.398939,0.1559905 -0.380686,0.1397324 -0.712289,0.2365939 -0.640533,0.1833797 -0.566951,0.1369296 -0.488165,0.096486 -0.329688,0.055474 -0.130414,0.032398 -0.107633,0.038504 -0.08464,0.043664 -0.06152,0.047881 -0.03824,0.051147 -0.01487,0.053448 -0.0074,0.1284852 -0.06154,0.8830336 -0.07735,0.8817892 -0.01279,0.1280616 0.0063,0.055116 0.02977,0.0565 0.05327,0.056915 0.07676,0.056367 0.100284,0.054867 0.123741,0.0524 0.316951,0.1063657 0.467062,0.1716644 0.53855,0.2239345 0.603959,0.2813233 0.666508,0.3451074 0.354141,0.1975646 0.369625,0.2164778 0.381895,0.2345462 0.393655,0.2532364 0.382104,0.2570749 a 53.476061,53.476061 0 0 1 -0.298612,1.8853663 l -0.442844,0.1264159 -0.452642,0.1191962 -0.435683,0.1050546 -0.418429,0.091662 -0.397859,0.078459 -0.740531,0.1222544 -0.661333,0.080921 -0.581391,0.04655 -0.497249,0.01893 -0.334308,0.0032 -0.133876,0.0116 -0.112331,0.02119 -0.09043,0.02989 -0.06825,0.03767 -0.04577,0.04453 -0.02305,0.05046 -0.02741,0.125745 -0.198921,0.862535 -0.214343,0.858832 -0.03266,0.124485 -0.0024,0.05543 0.02056,0.06046 0.04371,0.06455 0.067,0.06768 0.09047,0.06988 0.11402,0.07111 0.29641,0.154639 0.434457,0.242615 0.496889,0.305425 0.552515,0.37234 0.604315,0.445124 0.318875,0.250532 0.33121,0.271634 0.340502,0.2914 0.349193,0.3117 0.337185,0.313684 a 53.476061,53.476061 0 0 1 -0.589873,1.815442 l -0.457167,0.05558 -0.465716,0.04692 -0.446752,0.03561 -0.427617,0.02508 -0.405235,0.01525 -0.750538,0.0049 -0.66585,-0.02353 -0.581516,-0.04497 -0.494089,-0.05909 -0.330695,-0.04912 -0.134042,-0.0095 -0.114263,0.0034 -0.09399,0.01537 -0.0733,0.02653 -0.05217,0.03683 -0.03066,0.04624 -0.04675,0.119909 -0.331402,0.820798 -0.346055,0.814728 -0.05173,0.117842 -0.01102,0.05437 0.01085,0.06293 0.03307,0.07059 0.05559,0.07733 0.07842,0.08317 0.101491,0.08807 0.26857,0.199103 0.391155,0.307593 0.442992,0.379395 0.487466,0.454188 0.527242,0.534179 0.275758,0.297331 0.284638,0.320103 0.290725,0.341078 0.296134,0.362489 0.283962,0.362569 a 53.476061,53.476061 0 0 1 -0.866607,1.700814 l -0.460234,-0.01662 -0.467322,-0.02651 -0.446823,-0.03472 -0.426275,-0.04213 -0.402631,-0.04833 -0.742066,-0.112565 -0.653971,-0.127403 -0.567322,-0.135386 -0.478762,-0.135652 -0.318939,-0.100248 -0.130908,-0.03034 -0.113382,-0.01456 -0.09524,4.81e-4 -0.07655,0.01473 -0.05729,0.02821 -0.03751,0.04087 -0.06493,0.11112 -0.455723,0.758849 -0.469245,0.750563 -0.06953,0.108298 -0.01939,0.05198 8.74e-4,0.06386 0.02162,0.07489 0.04281,0.08507 0.06444,0.09442 0.08646,0.102865 0.234117,0.238666 0.338221,0.364995 0.378188,0.444024 0.410413,0.524853 0.437188,0.610081 0.225849,0.336808 0.231059,0.360689 0.233789,0.382359 0.235783,0.404351 0.223748,0.402527 a 53.476061,53.476061 0 0 1 -1.122005,1.544307 l -0.451968,-0.08841 -0.457421,-0.09929 -0.43589,-0.104192 -0.414437,-0.108291 -0.390114,-0.110716 -0.71532,-0.227265 -0.62599,-0.228138 -0.539158,-0.222467 -0.451647,-0.208877 -0.299331,-0.148907 -0.12455,-0.05044 -0.109709,-0.03211 -0.09414,-0.01442 -0.07791,0.0026 -0.061,0.0189 -0.04345,0.0345 -0.08151,0.09959 -0.568822,0.678215 -0.580883,0.667916 -0.08562,0.09609 -0.02728,0.04831 -0.0091,0.06321 0.0096,0.07736 0.02897,0.09072 0.04888,0.103334 0.06931,0.115125 0.193899,0.272351 0.276959,0.413411 0.304071,0.497719 0.323256,0.582594 0.336367,0.670961 0.17038,0.367992 0.17179,0.392394 0.171097,0.414225 0.169625,0.436257 0.158024,0.432573 a 53.476061,53.476061 0 0 1 -1.349773,1.349773 l -0.432573,-0.158024 -0.436257,-0.169625 -0.414225,-0.171097 -0.392394,-0.17179 -0.367992,-0.17038 -0.670961,-0.336367 -0.582594,-0.323256 -0.497719,-0.304071 -0.413411,-0.276959 -0.272351,-0.193899 -0.115125,-0.06931 -0.103334,-0.04888 -0.09072,-0.02897 -0.07736,-0.0096 -0.06321,0.0091 -0.04831,0.02728 -0.09609,0.08562 -0.667916,0.580883 -0.678215,0.568822 -0.09959,0.08151 -0.0345,0.04345 -0.0189,0.061 -0.0026,0.07791 0.01442,0.09414 0.03211,0.109709 0.05044,0.12455 0.148907,0.299331 0.208877,0.451647 0.222467,0.539158 0.228138,0.62599 0.227265,0.71532 0.110716,0.390114 0.108291,0.414437 0.104192,0.43589 0.09929,0.457421 0.08841,0.451968 a 53.476061,53.476061 0 0 1 -1.544307,1.122005 L 30.25264,43.59343 29.848289,43.357647 29.46593,43.123858 29.105241,42.892799 28.768433,42.66695 28.158352,42.229762 27.633499,41.819349 27.189475,41.441161 26.82448,41.10294 l -0.238666,-0.234117 -0.102865,-0.08646 -0.09442,-0.06444 -0.08507,-0.04281 -0.07489,-0.02162 -0.06386,-8.74e-4 -0.05198,0.01939 -0.108298,0.06953 -0.750563,0.469245 -0.758849,0.455723 -0.11112,0.06493 -0.04087,0.03751 -0.02821,0.05729 -0.01473,0.07655 -4.81e-4,0.09524 0.01456,0.113382 0.03034,0.130908 0.100248,0.318939 0.135652,0.478762 0.135386,0.567322 0.127403,0.653971 0.112565,0.742066 0.04833,0.402631 0.04213,0.426275 0.03472,0.446823 0.02651,0.467322 0.01662,0.460234 a 53.476061,53.476061 0 0 1 -1.700814,0.866607 L 23.060689,47.789307 22.6982,47.493173 22.357122,47.202448 22.037019,46.91781 21.739688,46.642052 21.205509,46.11481 l -0.454188,-0.487466 -0.379395,-0.442992 -0.307593,-0.391155 -0.199103,-0.26857 -0.08807,-0.101491 -0.08317,-0.07842 -0.07733,-0.05559 -0.07059,-0.03307 -0.06293,-0.01085 -0.05437,0.01102 -0.117842,0.05173 -0.814728,0.346055 -0.820798,0.331402 -0.119909,0.04675 -0.04624,0.03066 -0.03683,0.05217 -0.02653,0.0733 -0.01537,0.09399 -0.0034,0.114263 0.0095,0.134042 0.04912,0.330695 0.05909,0.494089 0.04497,0.581516 0.02353,0.66585 -0.0049,0.750538 -0.01525,0.405235 -0.02508,0.427617 -0.03561,0.446752 -0.04692,0.465716 -0.05558,0.457167 a 53.476061,53.476061 0 0 1 -1.815442,0.589873 l -0.313684,-0.337185 -0.3117,-0.349193 -0.2914,-0.340502 -0.271634,-0.33121 -0.250532,-0.318875 -0.445124,-0.604315 -0.37234,-0.552515 -0.305425,-0.496889 -0.242615,-0.434457 -0.154639,-0.29641 -0.07111,-0.11402 -0.06988,-0.09047 -0.06768,-0.067 -0.06455,-0.04371 -0.06046,-0.02056 -0.05543,0.0024 -0.124485,0.03266 -0.858832,0.214343 -0.862535,0.198921 -0.125745,0.02741 -0.05046,0.02305 -0.04453,0.04577 -0.03767,0.06825 -0.02989,0.09043 -0.02119,0.112331 -0.0116,0.133876 -0.0032,0.334308 -0.01893,0.497249 -0.04655,0.581391 -0.080921,0.661333 -0.1222544,0.740531 -0.078459,0.397859 -0.091662,0.418429 L 9.55238,51.764549 9.4331838,52.217191 9.3067679,52.660035 A 53.476061,53.476061 0 0 1 7.4214821,52.958567 L 7.1644072,52.576463 6.9111708,52.182808 6.6766246,51.800913 6.4601468,51.431288 6.2625822,51.077147 5.9174748,50.410639 5.6361515,49.80668 5.412217,49.26813 5.2405526,48.801068 5.1341869,48.484117 l -0.0524,-0.123741 -0.054867,-0.100284 -0.056367,-0.07676 -0.056915,-0.05327 -0.0565,-0.02977 -0.055116,-0.0063 -0.1280616,0.01279 -0.8817892,0.07735 -0.8830336,0.06154 -0.1284852,0.0074 -0.053448,0.01487 -0.051147,0.03824 -0.047881,0.06152 -0.043664,0.08464 -0.038504,0.107633 -0.032398,0.130414 -0.055474,0.329688 -0.096486,0.488165 -0.1369296,0.566951 -0.1833797,0.640533 -0.2365939,0.712289 -0.1397324,0.380686 -0.1559905,0.398939 -0.1719169,0.413884 -0.1885375,0.428423 -0.19413555,0.417616 a 53.476061,53.476061 0 0 1 -1.9088677,0 L -1.148569,53.049947 -1.3371065,52.621524 -1.5090234,52.20764 l -0.1559905,-0.398939 -0.1397324,-0.380686 -0.2365939,-0.712289 -0.1833797,-0.640533 -0.1369296,-0.566951 -0.096486,-0.488165 -0.055474,-0.329688 -0.032398,-0.130414 -0.038504,-0.107633 -0.043664,-0.08464 -0.047881,-0.06152 -0.051147,-0.03824 -0.053448,-0.01487 -0.1284852,-0.0074 -0.8830336,-0.06154 -0.8817892,-0.07735 -0.1280616,-0.01279 -0.055116,0.0063 -0.0565,0.02977 -0.056915,0.05327 -0.056367,0.07676 -0.054867,0.100284 -0.0524,0.123741 -0.1063657,0.316951 -0.1716644,0.467062 -0.2239345,0.53855 -0.2813233,0.603959 -0.3451074,0.666508 -0.1975646,0.354141 -0.2164778,0.369625 -0.2345462,0.381895 -0.2532364,0.393655 -0.2570749,0.382104 a 53.476061,53.476061 0 0 1 -1.8853663,-0.298612 l -0.1264159,-0.442844 -0.1191962,-0.452642 -0.1050546,-0.435683 -0.091662,-0.418429 -0.078459,-0.397859 -0.1222544,-0.740531 -0.080921,-0.661333 -0.04655,-0.581391 -0.01893,-0.497249 -0.0032,-0.334308 -0.0116,-0.133876 -0.02119,-0.112331 -0.02989,-0.09043 -0.03767,-0.06825 -0.04453,-0.04577 -0.05046,-0.02305 -0.125745,-0.02741 -0.862535,-0.198921 -0.858832,-0.214343 -0.124485,-0.03266 -0.05543,-0.0024 -0.06046,0.02056 -0.06455,0.04371 -0.06768,0.067 -0.06988,0.09047 -0.07111,0.11402 -0.154639,0.29641 -0.242615,0.434457 -0.305425,0.496889 -0.37234,0.552515 -0.445124,0.604315 -0.250532,0.318875 -0.271634,0.33121 -0.2914,0.340502 -0.3117,0.349193 -0.313684,0.337185 a 53.476061,53.476061 0 0 1 -1.815442,-0.589873 l -0.05558,-0.457167 -0.04692,-0.465716 -0.03561,-0.446752 -0.02508,-0.427617 -0.01525,-0.405235 -0.0049,-0.750538 0.02353,-0.66585 0.04497,-0.581516 0.05909,-0.494089 0.04912,-0.330695 0.0095,-0.134042 -0.0034,-0.114263 -0.01537,-0.09399 -0.02653,-0.0733 -0.03683,-0.05217 -0.04624,-0.03066 -0.119909,-0.04675 -0.820798,-0.331402 -0.814728,-0.346055 -0.117842,-0.05173 -0.05437,-0.01102 -0.06293,0.01085 -0.07059,0.03307 -0.07733,0.05559 -0.08317,0.07842 -0.08807,0.101491 -0.199103,0.26857 -0.307593,0.391155 -0.379395,0.442992 -0.454188,0.487466 -0.534179,0.527242 -0.297331,0.275758 -0.320103,0.284638 -0.341078,0.290725 -0.362489,0.296134 -0.362569,0.283962 a 53.476061,53.476061 0 0 1 -1.700814,-0.866607 l 0.01662,-0.460234 0.02651,-0.467322 0.03472,-0.446823 0.04213,-0.426275 0.04833,-0.402631 0.112565,-0.742066 0.127403,-0.653971 0.135386,-0.567322 0.135652,-0.478762 0.100248,-0.318939 0.03034,-0.130908 0.01456,-0.113382 -4.81e-4,-0.09524 -0.01473,-0.07655 -0.02821,-0.05729 -0.04087,-0.03751 -0.11112,-0.06493 -0.758849,-0.455723 -0.750563,-0.469245 -0.108298,-0.06953 -0.05198,-0.01939 -0.06386,8.74e-4 -0.07489,0.02162 -0.08507,0.04281 -0.09442,0.06444 -0.102865,0.08646 -0.238666,0.234117 -0.364995,0.338221 -0.444024,0.378188 -0.524853,0.410413 -0.610081,0.437188 -0.336808,0.225849 -0.360689,0.231059 -0.382359,0.233789 -0.404351,0.235783 -0.402527,0.223748 a 53.476061,53.476061 0 0 1 -1.544307,-1.122005 l 0.08841,-0.451968 0.09929,-0.457421 0.104192,-0.43589 0.108291,-0.414437 0.110716,-0.390114 0.227265,-0.71532 0.228138,-0.62599 0.222467,-0.539158 0.208877,-0.451647 0.148907,-0.299331 0.05044,-0.12455 0.03211,-0.109709 0.01442,-0.09414 -0.0026,-0.07791 -0.0189,-0.061 -0.0345,-0.04345 -0.09959,-0.08151 -0.678215,-0.568822 -0.667916,-0.580883 -0.09609,-0.08562 -0.04831,-0.02728 -0.06321,-0.0091 -0.07736,0.0096 -0.09072,0.02897 -0.103334,0.04888 -0.115125,0.06931 -0.272351,0.193899 -0.413411,0.276959 -0.497719,0.304071 -0.582594,0.323256 -0.670961,0.336367 -0.367992,0.17038 -0.392394,0.17179 -0.414225,0.171097 -0.436257,0.169625 -0.432573,0.158024 a 53.476061,53.476061 0 0 1 -1.349773,-1.349773 l 0.158024,-0.432573 0.169625,-0.436257 0.171097,-0.414225 0.17179,-0.392394 0.17038,-0.367992 0.336367,-0.670961 0.323256,-0.582594 0.304071,-0.497719 0.276959,-0.413411 0.193899,-0.272351 0.06931,-0.115125 0.04888,-0.103334 0.02897,-0.09072 0.0096,-0.07736 -0.0091,-0.06321 -0.02728,-0.04831 -0.08562,-0.09609 -0.580883,-0.667916 -0.568822,-0.678215 -0.08151,-0.09959 -0.04345,-0.0345 -0.061,-0.0189 -0.07791,-0.0026 -0.09414,0.01442 -0.109709,0.03211 -0.12455,0.05044 -0.299331,0.148907 -0.451647,0.208877 -0.539158,0.222467 -0.62599,0.228138 -0.71532,0.227265 -0.390114,0.110716 -0.414437,0.108291 -0.43589,0.104192 -0.457421,0.09929 -0.451968,0.08841 a 53.476061,53.476061 0 0 1 -1.122005,-1.544307 l 0.223748,-0.402527 0.235783,-0.404351 0.233789,-0.382359 0.231059,-0.360689 0.225849,-0.336808 0.437188,-0.610081 0.410413,-0.524853 0.378188,-0.444024 0.338221,-0.364995 0.234117,-0.238666 0.08646,-0.102865 0.06444,-0.09442 0.04281,-0.08507 0.02162,-0.07489 8.74e-4,-0.06386 -0.01939,-0.05198 -0.06953,-0.108298 -0.469245,-0.750563 -0.455723,-0.758849 -0.06493,-0.11112 -0.03751,-0.04087 -0.05729,-0.02821 -0.07655,-0.01473 -0.09524,-4.81e-4 -0.113382,0.01456 -0.130908,0.03034 -0.318939,0.100248 -0.478762,0.135652 -0.567322,0.135386 -0.653971,0.127403 -0.742066,0.112565 -0.402631,0.04833 -0.426275,0.04213 -0.446823,0.03472 -0.467322,0.02651 -0.460234,0.01662 a 53.476061,53.476061 0 0 1 -0.866607,-1.700814 l 0.283962,-0.362569 0.296134,-0.362489 0.290725,-0.341078 0.284638,-0.320103 0.275758,-0.297331 0.527242,-0.534179 0.487466,-0.454188 0.442992,-0.379395 0.391155,-0.307593 0.26857,-0.199103 0.101491,-0.08807 0.07842,-0.08317 0.05559,-0.07733 0.03307,-0.07059 0.01085,-0.06293 -0.01102,-0.05437 -0.05173,-0.117842 -0.346055,-0.814728 -0.331402,-0.820798 -0.04675,-0.119909 -0.03066,-0.04624 -0.05217,-0.03683 -0.0733,-0.02653 -0.09399,-0.01537 -0.114263,-0.0034 -0.134042,0.0095 -0.330695,0.04912 -0.494089,0.05909 -0.581516,0.04497 -0.66585,0.02353 -0.750538,-0.0049 -0.405235,-0.01525 -0.427617,-0.02508 -0.446752,-0.03561 -0.465716,-0.04692 -0.457167,-0.05558 a 53.476061,53.476061 0 0 1 -0.589873,-1.815442 l 0.337185,-0.313684 0.349193,-0.3117 0.340502,-0.2914 0.33121,-0.271634 0.318875,-0.250532 0.604315,-0.445124 0.552515,-0.37234 0.496889,-0.305425 0.434457,-0.242615 0.29641,-0.154639 0.11402,-0.07111 0.09047,-0.06988 0.067,-0.06768 0.04371,-0.06455 0.02056,-0.06046 -0.0024,-0.05543 -0.03266,-0.124485 -0.214343,-0.858832 -0.198921,-0.862535 -0.02741,-0.125745 -0.02305,-0.05046 -0.04577,-0.04453 -0.06825,-0.03767 -0.09043,-0.02989 -0.112331,-0.02119 -0.133876,-0.0116 -0.334308,-0.0032 -0.497249,-0.01893 -0.581391,-0.04655 -0.661333,-0.080921 -0.740531,-0.1222544 -0.397859,-0.078459 -0.418429,-0.091662 -0.435683,-0.1050546 -0.452642,-0.1191962 -0.442844,-0.1264159 a 53.476061,53.476061 0 0 1 -0.298612,-1.8853663 l 0.382104,-0.2570749 0.393655,-0.2532364 0.381895,-0.2345462 0.369625,-0.2164778 0.354141,-0.1975646 0.666508,-0.3451074 0.603959,-0.2813233 0.53855,-0.2239345 0.467062,-0.1716644 0.316951,-0.1063657 0.123741,-0.0524 0.100284,-0.054867 0.07676,-0.056367 0.05327,-0.056915 0.02977,-0.0565 0.0063,-0.055116 -0.01279,-0.1280616 -0.07735,-0.8817892 -0.06154,-0.8830336 -0.0074,-0.1284852 -0.01487,-0.053448 -0.03824,-0.051147 -0.06152,-0.047881 -0.08464,-0.043664 -0.107633,-0.038504 -0.130414,-0.032398 -0.329688,-0.055474 -0.488165,-0.096486 -0.566951,-0.1369296 -0.640533,-0.1833797 -0.712289,-0.2365939 -0.380686,-0.1397324 -0.398939,-0.1559905 -0.413884,-0.1719169 -0.428423,-0.1885375 -0.417616,-0.19413555 a 53.476061,53.476061 0 0 1 0,-1.9088677 l 0.417616,-0.19413555 0.428423,-0.1885375 0.413884,-0.1719169 0.398939,-0.1559905 0.380686,-0.1397324 0.712289,-0.2365939 0.640533,-0.1833797 0.566951,-0.1369296 0.488165,-0.096486 0.329688,-0.055474 0.130414,-0.032398 0.107633,-0.038504 0.08464,-0.043664 0.06152,-0.047881 0.03824,-0.051147 0.01487,-0.053448 0.0074,-0.1284852 0.06154,-0.8830336 0.07735,-0.8817892 0.01279,-0.1280616 -0.0063,-0.055116 -0.02977,-0.0565 -0.05327,-0.056915 -0.07676,-0.056367 -0.100284,-0.054867 -0.123741,-0.0524 -0.316951,-0.1063657 -0.467062,-0.1716644 -0.53855,-0.2239345 -0.603959,-0.2813233 -0.666508,-0.3451074 -0.354141,-0.1975646 -0.369625,-0.2164778 -0.381895,-0.2345462 -0.393655,-0.2532364 -0.382104,-0.2570749 a 53.476061,53.476061 0 0 1 0.298612,-1.8853663 l 0.442844,-0.1264159 0.452642,-0.1191962 0.435683,-0.1050546 0.418429,-0.091662 0.397859,-0.078459 0.740531,-0.1222544 0.661333,-0.080921 0.581391,-0.04655 0.497249,-0.01893 0.334308,-0.0032 0.133876,-0.0116 0.112331,-0.02119 0.09043,-0.02989 0.06825,-0.03767 0.04577,-0.04453 0.02305,-0.05046 0.02741,-0.125745 0.198921,-0.862535 0.214343,-0.858832 0.03266,-0.124485 0.0024,-0.05543 -0.02056,-0.06046 -0.04371,-0.06455 -0.067,-0.06768 -0.09047,-0.06988 -0.11402,-0.07111 -0.29641,-0.154639 -0.434457,-0.242615 -0.496889,-0.305425 -0.552515,-0.37234 -0.604315,-0.445124 -0.318875,-0.250532 -0.33121,-0.271634 -0.340502,-0.2914 -0.349193,-0.3117 -0.337185,-0.313684 a 53.476061,53.476061 0 0 1 0.589873,-1.815442 l 0.457167,-0.05558 0.465716,-0.04692 0.446752,-0.03561 0.427617,-0.02508 0.405235,-0.01525 0.750538,-0.0049 0.66585,0.02353 0.581516,0.04497 0.494089,0.05909 0.330695,0.04912 0.134042,0.0095 0.114263,-0.0034 0.09399,-0.01537 0.0733,-0.02653 0.05217,-0.03683 0.03066,-0.04624 0.04675,-0.119909 0.331402,-0.820798 0.346055,-0.814728 0.05173,-0.117842 0.01102,-0.05437 -0.01085,-0.06293 -0.03307,-0.07059 -0.05559,-0.07733 -0.07842,-0.08317 -0.101491,-0.08807 -0.26857,-0.199103 -0.391155,-0.307593 -0.442992,-0.379395 -0.487466,-0.454188 -0.527242,-0.534179 -0.275758,-0.297331 -0.284638,-0.320103 -0.290725,-0.341078 -0.296134,-0.362489 -0.283962,-0.362569 a 53.476061,53.476061 0 0 1 0.866607,-1.700814 l 0.460234,0.01662 0.467322,0.02651 0.446823,0.03472 0.426275,0.04213 0.402631,0.04833 0.742066,0.112565 0.653971,0.127403 0.567322,0.135386 0.478762,0.135652 0.318939,0.100248 0.130908,0.03034 0.113382,0.01456 0.09524,-4.81e-4 0.07655,-0.01473 0.05729,-0.02821 0.03751,-0.04087 0.06493,-0.11112 0.455723,-0.758849 0.469245,-0.750563 0.06953,-0.108298 0.01939,-0.05198 -8.74e-4,-0.06386 -0.02162,-0.07489 -0.04281,-0.08507 -0.06444,-0.09442 -0.08646,-0.102865 -0.234117,-0.238666 -0.338221,-0.364995 -0.378188,-0.444024 -0.410413,-0.524853 -0.437188,-0.610081 -0.225849,-0.336808 -0.231059,-0.360689 -0.233789,-0.382359 -0.235783,-0.404351 -0.223748,-0.402527 a 53.476061,53.476061 0 0 1 1.122005,-1.544307 l 0.451968,0.08841 0.457421,0.09929 0.43589,0.104192 0.414437,0.108291 0.390114,0.110716 0.71532,0.227265 0.62599,0.228138 0.539158,0.222467 0.451647,0.208877 0.299331,0.148907 0.12455,0.05044 0.109709,0.03211 0.09414,0.01442 0.07791,-0.0026 0.061,-0.0189 0.04345,-0.0345 0.08151,-0.09959 0.568822,-0.678215 0.580883,-0.667916 0.08562,-0.09609 0.02728,-0.04831 0.0091,-0.06321 -0.0096,-0.07736 -0.02897,-0.09072 -0.04888,-0.103334 -0.06931,-0.115125 -0.193899,-0.272351 -0.276959,-0.413411 -0.304071,-0.497719 -0.323256,-0.582594 -0.336367,-0.670961 -0.17038,-0.367992 -0.17179,-0.392394 -0.171097,-0.414225 -0.169625,-0.436257 -0.158024,-0.432573 a 53.476061,53.476061 0 0 1 1.349773,-1.349773 l 0.432573,0.158024 0.436257,0.169625 0.414225,0.171097 0.392394,0.17179 0.367992,0.17038 0.670961,0.336367 0.582594,0.323256 0.497719,0.304071 0.413411,0.276959 0.272351,0.193899 0.115125,0.06931 0.103334,0.04888 0.09072,0.02897 0.07736,0.0096 0.06321,-0.0091 0.04831,-0.02728 0.09609,-0.08562 0.667916,-0.580883 0.678215,-0.568822 0.09959,-0.08151 0.0345,-0.04345 0.0189,-0.061 0.0026,-0.07791 -0.01442,-0.09414 -0.03211,-0.109709 -0.05044,-0.12455 -0.148907,-0.299331 -0.208877,-0.451647 -0.222467,-0.539158 -0.228138,-0.62599 -0.227265,-0.71532 -0.110716,-0.390114 -0.108291,-0.414437 -0.104192,-0.43589 -0.09929,-0.457421 -0.08841,-0.451968 a 53.476061,53.476061 0 0 1 1.544307,-1.122005 l 0.402527,0.223748 0.404351,0.235783 0.382359,0.233789 0.360689,0.231059 0.336808,0.225849 0.610081,0.437188 0.524853,0.410413 0.444024,0.378188 0.364995,0.338221 0.238666,0.234117 0.102865,0.08646 0.09442,0.06444 0.08507,0.04281 0.07489,0.02162 0.06386,8.74e-4 0.05198,-0.01939 0.108298,-0.06953 0.750563,-0.469245 0.758849,-0.455723 0.11112,-0.06493 0.04087,-0.03751 0.02821,-0.05729 0.01473,-0.07655 4.81e-4,-0.09524 -0.01456,-0.113382 -0.03034,-0.130908 -0.100248,-0.318939 -0.135652,-0.478762 -0.135386,-0.567322 -0.127403,-0.653971 -0.112565,-0.742066 -0.04833,-0.402631 -0.04213,-0.426275 -0.03472,-0.446823 -0.02651,-0.467322 -0.01662,-0.460234 a 53.476061,53.476061 0 0 1 1.700814,-0.866607 l 0.362569,0.283962 0.362489,0.296134 0.341078,0.290725 0.320103,0.284638 0.297331,0.275758 0.534179,0.527242 0.454188,0.487466 0.379395,0.442992 0.307593,0.391155 0.199103,0.26857 0.08807,0.101491 0.08317,0.07842 0.07733,0.05559 0.07059,0.03307 0.06293,0.01085 0.05437,-0.01102 0.117842,-0.05173 0.814728,-0.346055 0.820798,-0.331402 0.119909,-0.04675 0.04624,-0.03066 0.03683,-0.05217 0.02653,-0.0733 0.01537,-0.09399 0.0034,-0.114263 -0.0095,-0.134042 -0.04912,-0.330695 -0.05909,-0.494089 -0.04497,-0.581516 -0.02353,-0.66585 0.0049,-0.750538 0.01525,-0.405235 0.02508,-0.427617 0.03561,-0.446752 0.04692,-0.465716 0.05558,-0.457167 a 53.476061,53.476061 0 0 1 1.815442,-0.589873 l 0.313684,0.337185 0.3117,0.349193 0.2914,0.340502 0.271634,0.33121 0.250532,0.318875 0.445124,0.604315 0.37234,0.552515 0.305425,0.496889 0.242615,0.434457 0.154639,0.29641 0.07111,0.11402 0.06988,0.09047 0.06768,0.067 0.06455,0.04371 0.06046,0.02056 0.05543,-0.0024 0.124485,-0.03266 0.858832,-0.214343 0.862535,-0.198921 0.125745,-0.02741 0.05046,-0.02305 0.04453,-0.04577 0.03767,-0.06825 0.02989,-0.09043 0.02119,-0.112331 0.0116,-0.133876 0.0032,-0.334308 0.01893,-0.497249 0.04655,-0.581391 0.080921,-0.661333 0.1222544,-0.740531 0.078459,-0.397859 0.091662,-0.418429 0.1050546,-0.435683 0.1191962,-0.452642 0.1264159,-0.442844 a 53.476061,53.476061 0 0 1 1.8853663,-0.298612 l 0.2570749,0.382104 0.2532364,0.393655 0.2345462,0.381895 0.2164778,0.369625 0.1975646,0.354141 0.3451074,0.666508 0.2813233,0.603959 0.2239345,0.53855 0.1716644,0.467062 0.1063657,0.316951 0.0524,0.123741 0.054867,0.100284 0.056367,0.07676 0.056915,0.05327 0.0565,0.02977 0.055116,0.0063 0.1280616,-0.01279 0.8817892,-0.07735 0.8830336,-0.06154 0.1284852,-0.0074 0.053448,-0.01487 0.051147,-0.03824 0.047881,-0.06152 0.043664,-0.08464 0.038504,-0.107633 0.032398,-0.130414 0.055474,-0.329688 0.096486,-0.488165 0.1369296,-0.566951 0.1833797,-0.640533 0.2365939,-0.712289 0.1397324,-0.380686 0.1559905,-0.398939 0.1719169,-0.413884 0.1885375,-0.428423 0.19413555,-0.417616 a 53.476061,53.476061 0 0 1 1.9088677,0 l 0.19413555,0.417616 0.1885375,0.428423 0.1719169,0.413884 0.1559905,0.398939 0.1397324,0.380686 0.2365939,0.712289 0.1833797,0.640533 0.1369296,0.566951 0.096486,0.488165 0.055474,0.329688 0.032398,0.130414 0.038504,0.107633 0.043664,0.08464 0.047881,0.06152 0.051147,0.03824 0.053448,0.01487 0.1284852,0.0074 0.8830336,0.06154 0.8817892,0.07735 0.1280616,0.01279 0.055116,-0.0063 0.0565,-0.02977 0.056915,-0.05327 0.056367,-0.07676 0.054867,-0.100284 0.0524,-0.123741 0.1063657,-0.316951 0.1716644,-0.467062 0.2239345,-0.53855 0.2813233,-0.603959 0.3451074,-0.666508 0.1975646,-0.354141 0.2164778,-0.369625 0.2345462,-0.381895 0.2532364,-0.393655 0.2570749,-0.382104 a 53.476061,53.476061 0 0 1 1.8853663,0.298612 l 0.1264159,0.442844 0.1191962,0.452642 0.1050546,0.435683 0.091662,0.418429 0.078459,0.397859 0.1222544,0.740531 0.08092,0.661333 0.04655,0.581391 0.01893,0.497249 0.0032,0.334308 0.0116,0.133876 0.02119,0.112331 0.02989,0.09043 0.03767,0.06825 0.04453,0.04577 0.05046,0.02305 0.125745,0.02741 0.862535,0.198921 0.858832,0.214343 0.124485,0.03266 0.05543,0.0024 0.06046,-0.02056 0.06455,-0.04371 0.06768,-0.067 0.06988,-0.09047 0.07111,-0.11402 0.154639,-0.29641 0.242615,-0.434457 0.305425,-0.496889 0.37234,-0.552515 0.445124,-0.604315 0.250532,-0.318875 0.271634,-0.33121 0.2914,-0.340502 0.3117,-0.349193 0.313684,-0.337185 a 53.476061,53.476061 0 0 1 1.815442,0.589873 l 0.05558,0.457167 0.04692,0.465716 0.03561,0.446752 0.02508,0.427617 0.01525,0.405235 0.0049,0.750538 -0.02353,0.66585 -0.04497,0.581516 -0.05909,0.494089 -0.04912,0.330695 -0.0095,0.134042 0.0034,0.114263 0.01537,0.09399 0.02653,0.0733 0.03683,0.05217 0.04624,0.03066 0.119909,0.04675 0.820798,0.331402 0.814728,0.346055 0.117842,0.05173 0.05437,0.01102 0.06293,-0.01085 0.07059,-0.03307 0.07733,-0.05559 0.08317,-0.07842 0.08807,-0.101491 0.199103,-0.26857 0.307593,-0.391155 0.379395,-0.442992 0.454188,-0.487466 0.534179,-0.527242 0.297331,-0.275758 0.320103,-0.284638 0.341078,-0.290725 0.362489,-0.296134 0.362569,-0.283962 a 53.476061,53.476061 0 0 1 1.700814,0.866607 l -0.01662,0.460234 -0.02651,0.467322 -0.03472,0.446823 -0.04213,0.426275 -0.04833,0.402631 -0.112565,0.742066 -0.127403,0.653971 -0.135386,0.567322 -0.135652,0.478762 -0.100248,0.318939 -0.03034,0.130908 -0.01456,0.113382 4.81e-4,0.09524 0.01473,0.07655 0.02821,0.05729 0.04087,0.03751 0.11112,0.06493 0.758849,0.455723 0.750563,0.469245 0.108298,0.06953 0.05198,0.01939 0.06386,-8.74e-4 0.07489,-0.02162 0.08507,-0.04281 0.09442,-0.06444 0.102865,-0.08646 0.238666,-0.234117 0.364995,-0.338221 0.444024,-0.378188 0.524853,-0.410413 0.610081,-0.437188 0.336808,-0.225849 0.360691,-0.231059 0.38236,-0.233789 0.40435,-0.235783 0.402527,-0.223748 a 53.476061,53.476061 0 0 1 1.544308,1.122005 l -0.08841,0.451968 -0.09929,0.457421 -0.104192,0.43589 -0.108291,0.414437 -0.110716,0.390114 -0.227265,0.71532 -0.228138,0.62599 -0.222467,0.539158 -0.208877,0.451647 -0.148907,0.299331 -0.05044,0.12455 -0.03211,0.109709 -0.01442,0.09414 0.0026,0.07791 0.0189,0.061 0.0345,0.04345 0.09959,0.08151 0.678215,0.568822 0.667916,0.580883 0.09609,0.08562 0.04831,0.02728 0.06321,0.0091 0.07736,-0.0096 0.09072,-0.02897 0.103334,-0.04888 0.115125,-0.06931 0.272351,-0.193899 0.413411,-0.276959 0.497719,-0.304071 0.582594,-0.323256 0.670961,-0.336367 0.367992,-0.17038 0.392394,-0.17179 0.414225,-0.171097 0.436257,-0.169625 0.432573,-0.158024 a 53.476061,53.476061 0 0 1 1.349773,1.349773 l -0.158024,0.432573 -0.169625,0.436257 -0.171097,0.414225 -0.17179,0.392394 -0.17038,0.367992 -0.336367,0.670961 -0.323256,0.582594 -0.304071,0.497719 -0.276959,0.413411 -0.193899,0.272351 -0.06931,0.115125 -0.04888,0.103334 -0.02897,0.09072 -0.0096,0.07736 0.0091,0.06321 0.02728,0.04831 0.08562,0.09609 0.580883,0.667916 0.568822,0.678215 0.08151,0.09959 0.04345,0.0345 0.061,0.0189 0.07791,0.0026 0.09414,-0.01442 0.109709,-0.03211 0.12455,-0.05044 0.299331,-0.148907 0.451647,-0.208877 0.539158,-0.222467 0.62599,-0.228138 0.71532,-0.227265 0.390114,-0.110716 0.414437,-0.108291 0.43589,-0.104192 0.457421,-0.09929 0.451968,-0.08841 a 53.476061,53.476061 0 0 1 1.122005,1.544307 l -0.223748,0.402527 -0.235783,0.404351 -0.233789,0.382359 -0.231059,0.360689 -0.225849,0.336808 -0.437188,0.610081 -0.410413,0.524853 -0.378188,0.444024 -0.338221,0.364995 -0.234117,0.238666 -0.08646,0.102865 -0.06444,0.09442 -0.04281,0.08507 -0.02162,0.07489 -8.74e-4,0.06386 0.01939,0.05198 0.06953,0.108298 0.469245,0.750563 0.455723,0.758849 0.06493,0.11112 0.03751,0.04087 0.05729,0.02821 0.07655,0.01473 0.09524,4.81e-4 0.113382,-0.01456 0.130908,-0.03034 0.318939,-0.100248 0.478762,-0.135652 0.567322,-0.135386 0.653971,-0.127403 0.742066,-0.112565 0.402631,-0.04833 0.426275,-0.04213 0.446823,-0.03472 0.467322,-0.02651 0.460234,-0.01662 a 53.476061,53.476061 0 0 1 0.866607,1.700814 l -0.283962,0.362569 -0.296134,0.362489 -0.290725,0.341078 -0.284638,0.320103 -0.275758,0.297331 -0.527242,0.534179 -0.487466,0.454188 -0.442992,0.379395 -0.391155,0.307593 -0.26857,0.199103 -0.101491,0.08807 -0.07842,0.08317 -0.05559,0.07733 -0.03307,0.07059 -0.01085,0.06293 0.01102,0.05437 0.05173,0.117842 0.346055,0.814728 0.331402,0.820798 0.04675,0.119909 0.03066,0.04624 0.05217,0.03683 0.0733,0.02653 0.09399,0.01537 0.114263,0.0034 0.134042,-0.0095 0.330695,-0.04912 0.494089,-0.05909 0.581516,-0.04497 0.66585,-0.02353 0.750538,0.0049 0.405235,0.01525 0.427617,0.02508 0.446752,0.03561 0.465716,0.04692 0.457167,0.05558 a 53.476061,53.476061 0 0 1 0.589873,1.815442 l -0.337185,0.313684 -0.349193,0.3117 -0.340502,0.2914 -0.33121,0.271634 -0.318875,0.250532 -0.604315,0.445124 -0.552515,0.37234 -0.496889,0.305425 -0.434457,0.242615 -0.29641,0.154639 -0.11402,0.07111 -0.09047,0.06988 -0.067,0.06768 -0.04371,0.06455 -0.02056,0.06046 0.0024,0.05543 0.03266,0.124485 0.214343,0.858832 0.198921,0.862535 0.02741,0.125745 0.02305,0.05046 0.04577,0.04453 0.06825,0.03767 0.09043,0.02989 0.112331,0.02119 0.133876,0.0116 0.334308,0.0032 0.497249,0.01893 0.581391,0.04655 0.661333,0.080921 0.740531,0.1222544 0.397859,0.078459 0.418429,0.091662 0.435683,0.1050546 0.452642,0.1191962 0.442844,0.1264159 a 53.476061,53.476061 0 0 1 0.298612,1.8853663 z"
           id="SvgjsPath1446"
           style="stroke-width:0.05;stroke-miterlimit:4;stroke-dasharray:none;stroke:#000000;stroke-opacity:1" />
      </g>
    </g>
  </g>
  <path
     id="path880"
     style="fill:none;stroke:#ff0000;stroke-width:0.05;stroke-miterlimit:4;stroke-dasharray:none;stroke-opacity:1;paint-order:markers fill stroke"
     d="m -48.569389,-10.892744 a 2.4830616,2.4830616 0 0 0 -0.97255,1.9704201 2.4830616,2.4830616 0 0 0 0.97255,1.9709395 h 3.021005 a 2.4830616,2.4830616 0 0 0 0.97255,-1.9709395 2.4830616,2.4830616 0 0 0 -0.973069,-1.9704201 z" />
  <ellipse
     style="fill:none;stroke:#000000;stroke-width:0.05;stroke-miterlimit:4;stroke-dasharray:none;stroke-opacity:1;paint-order:markers fill stroke"
     id="path887"
     cx="-48.541935"
     cy="-8.9149446"
     rx="0.43708518"
     ry="0.43708515" />
  <ellipse
     style="fill:none;stroke:#000000;stroke-width:0.05;stroke-miterlimit:4;stroke-dasharray:none;stroke-opacity:1;paint-order:markers fill stroke"
     id="path887-8"
     cx="-45.575829"
     cy="-8.9270811"
     rx="0.43708521"
     ry="0.43708518" />
  <path
     id="rect3265"
     style="opacity:1;fill:none;stroke:#000000;stroke-width:0.05;stroke-miterlimit:4;stroke-dasharray:none;stroke-opacity:1;paint-order:markers fill stroke"
     d="m 56.192805,-8.084471 v 9.9833697 2.992583 h 2.992583 v -2.992583 h 5.316471 v 2.992583 H 67.49444 V 1.8988987 -8.084471 Z" />
  <rect
     style="opacity:1;fill:none;stroke:#000000;stroke-width:0.05;stroke-miterlimit:4;stroke-dasharray:none;stroke-opacity:1;paint-order:markers fill stroke"
     id="rect3265-1"
     width="2.9925373"
     height="2.9925373"
     x="-47.568371"
     y="-6.9013844" />
  <rect
     style="opacity:1;fill:none;stroke:#000000;stroke-width:0.05;stroke-miterlimit:4;stroke-dasharray:none;stroke-opacity:1;paint-order:markers fill stroke"
     id="rect3265-2-8"
     width="2.9925373"
     height="2.9925373"
     x="-55.885185"
     y="-6.9013844" />
  <path
     id="rect3265-4-3"
     style="opacity:1;fill:none;stroke:#000000;stroke-width:0.05;stroke-miterlimit:4;stroke-dasharray:none;stroke-opacity:1;paint-order:markers fill stroke"
     d="m 53.78198,-34.568703 v 2.992584 h 2.992583 v 16.591751 H 53.78198 v 2.992583 h 2.992583 9.976652 v -22.576918 h -9.976652 z" />
  <rect
     style="opacity:1;fill:none;stroke:#000000;stroke-width:0.05;stroke-miterlimit:4;stroke-dasharray:none;stroke-opacity:1;paint-order:markers fill stroke"
     id="rect3265-4-3-4"
     width="2.9925373"
     height="2.9925373"
     x="2.8885875"
     y="41.591206"
     transform="rotate(90)" />
  <rect
     style="opacity:1;fill:none;stroke:#000000;stroke-width:0.05;stroke-miterlimit:4;stroke-dasharray:none;stroke-opacity:1;paint-order:markers fill stroke"
     id="rect3265-2-3-2-0"
     width="2.9925373"
     height="2.9925373"
     x="-16.716557"
     y="41.591206"
     transform="rotate(90)" />
  <path
     id="path880-8"
     style="fill:none;stroke:#ff0000;stroke-width:0.05;stroke-miterlimit:4;stroke-dasharray:none;stroke-opacity:1;paint-order:markers fill stroke"
     d="m -48.569389,-3.8588471 a 2.4830616,2.4830616 0 0 0 -0.97255,1.9704209 2.4830616,2.4830616 0 0 0 0.97255,1.97093951 h 3.021005 a 2.4830616,2.4830616 0 0 0 0.97255,-1.97093951 2.4830616,2.4830616 0 0 0 -0.973069,-1.9704209 z" />
  <ellipse
     style="fill:none;stroke:#000000;stroke-width:0.05;stroke-miterlimit:4;stroke-dasharray:none;stroke-opacity:1;paint-order:markers fill stroke"
     id="path887-3"
     cx="-48.541935"
     cy="-1.8810471"
     rx="0.43708518"
     ry="0.43708515" />
  <ellipse
     style="fill:none;stroke:#000000;stroke-width:0.05;stroke-miterlimit:4;stroke-dasharray:none;stroke-opacity:1;paint-order:markers fill stroke"
     id="path887-8-9"
     cx="-45.575829"
     cy="-1.8931836"
     rx="0.43708521"
     ry="0.43708518" />
  <path
     id="path880-8-3"
     style="fill:none;stroke:#ff0000;stroke-width:0.0499999;stroke-miterlimit:4;stroke-dasharray:none;stroke-opacity:1;paint-order:markers fill stroke"
     d="m 40.150638,-52.731343 a 2.4830616,2.4830616 0 0 0 -0.97255,1.970421 2.4830616,2.4830616 0 0 0 0.97255,1.97094 h 3.021005 a 2.4830616,2.4830616 0 0 0 0.97255,-1.97094 2.4830616,2.4830616 0 0 0 -0.973069,-1.970421 z" />
  <ellipse
     style="fill:none;stroke:#000000;stroke-width:0.0499999;stroke-miterlimit:4;stroke-dasharray:none;stroke-opacity:1;paint-order:markers fill stroke"
     id="path887-3-6"
     cx="40.178093"
     cy="-50.753544"
     rx="0.43708521"
     ry="0.43708515" />
  <ellipse
     style="fill:none;stroke:#000000;stroke-width:0.0499999;stroke-miterlimit:4;stroke-dasharray:none;stroke-opacity:1;paint-order:markers fill stroke"
     id="path887-8-9-7"
     cx="43.144199"
     cy="-50.765682"
     rx="0.43708524"
     ry="0.43708521" />
  <rect
     style="opacity:1;fill:none;stroke:#000000;stroke-width:0.0499999;stroke-miterlimit:4;stroke-dasharray:none;stroke-opacity:1;paint-order:markers fill stroke"
     id="rect3490"
     width="7.2964621"
     height="5.7062068"
     x="38.012913"
     y="-53.566994" />
</svg>
